<svg width="49" height="49" viewBox="0 0 49 49" fill="none" xmlns="http://www.w3.org/2000/svg">
<path d="M32.98 42.8398V38.8398C32.98 36.7181 32.1371 34.6833 30.6368 33.183C29.1365 31.6827 27.1017 30.8398 24.98 30.8398H12.98C10.8582 30.8398 8.82342 31.6827 7.32313 33.183C5.82284 34.6833 4.97998 36.7181 4.97998 38.8398V42.8398" stroke="#00FFFF" stroke-width="4"/>
<path d="M18.98 22.8398C23.3983 22.8398 26.98 19.2581 26.98 14.8398C26.98 10.4216 23.3983 6.83984 18.98 6.83984C14.5617 6.83984 10.98 10.4216 10.98 14.8398C10.98 19.2581 14.5617 22.8398 18.98 22.8398Z" stroke="#00FFFF" stroke-width="4"/>
<path d="M38.98 16.8398V28.8398" stroke="#00FFFF" stroke-width="4"/>
<path d="M44.98 22.8398H32.98" stroke="#00FFFF" stroke-width="4"/>
</svg>
