<svg width="49" height="49" viewBox="0 0 49 49" fill="none" xmlns="http://www.w3.org/2000/svg">
<path d="M34.665 42.8398V38.8398C34.665 36.7181 33.8222 34.6833 32.3219 33.183C30.8216 31.6827 28.7868 30.8398 26.665 30.8398H10.665C8.54331 30.8398 6.50848 31.6827 5.00818 33.183C3.50789 34.6833 2.66504 36.7181 2.66504 38.8398V42.8398" stroke="#00FFFF" stroke-width="4"/>
<path d="M18.665 22.8398C23.0833 22.8398 26.665 19.2581 26.665 14.8398C26.665 10.4216 23.0833 6.83984 18.665 6.83984C14.2468 6.83984 10.665 10.4216 10.665 14.8398C10.665 19.2581 14.2468 22.8398 18.665 22.8398Z" stroke="#00FFFF" stroke-width="4"/>
<path d="M46.665 42.8399V38.8399C46.6637 37.0673 46.0738 35.3454 44.9878 33.9445C43.9018 32.5436 42.3813 31.543 40.665 31.0999" stroke="#00FFFF" stroke-width="4"/>
<path d="M32.665 7.09985C34.3859 7.54046 35.9111 8.54126 37.0003 9.94447C38.0895 11.3477 38.6807 13.0735 38.6807 14.8499C38.6807 16.6262 38.0895 18.352 37.0003 19.7552C35.9111 21.1585 34.3859 22.1593 32.665 22.5999" stroke="#00FFFF" stroke-width="4"/>
</svg>
